<svg id="visual" viewBox="0 0 900 600" width="900" height="600" xmlns="http://www.w3.org/2000/svg" xmlns:xlink="http://www.w3.org/1999/xlink" version="1.1"><rect x="0" y="0" width="900" height="600" fill="#001220"></rect><defs><linearGradient id="grad1_0" x1="33.3%" y1="0%" x2="100%" y2="100%"><stop offset="20%" stop-color="#001220" stop-opacity="1"></stop><stop offset="80%" stop-color="#001220" stop-opacity="1"></stop></linearGradient></defs><defs><linearGradient id="grad2_0" x1="0%" y1="0%" x2="66.7%" y2="100%"><stop offset="20%" stop-color="#001220" stop-opacity="1"></stop><stop offset="80%" stop-color="#001220" stop-opacity="1"></stop></linearGradient></defs><g transform="translate(900, 0)"><path d="M0 297.5C-52.3 289.9 -104.7 282.3 -148.7 257.6C-192.8 233 -228.6 191.3 -252 145.5C-275.4 99.7 -286.4 49.9 -297.5 0L0 0Z" fill="#3cccfa"></path></g><g transform="translate(0, 600)"><path d="M0 -297.5C47.5 -282.3 94.9 -267.1 141 -244.2C187.1 -221.3 231.8 -190.7 257.6 -148.7C283.5 -106.7 290.5 -53.4 297.5 0L0 0Z" fill="#3cccfa"></path></g></svg>