<?xml version="1.0" encoding="utf-8"?>
<svg viewBox="-499.799 212.929 1920 167" width="1920" height="167" xmlns="http://www.w3.org/2000/svg">
  <path d="M -733.355 726.132 L -687.655 719.832 C -642.055 713.432 -550.655 700.832 -459.155 699.132 C -367.655 697.432 -276.055 706.832 -184.555 713.132 C -93.055 719.432 -1.655 722.832 89.645 727.132 C 180.945 731.432 272.345 736.832 363.645 732.432 C 454.945 728.132 546.345 714.132 637.845 714.332 C 729.345 714.432 820.945 728.832 912.445 727.432 C 1003.945 726.132 1095.345 709.132 1140.945 700.632 L 1186.645 692.132 L 1186.645 859.132 L 1140.945 859.132 C 1095.345 859.132 1003.945 859.132 912.445 859.132 C 820.945 859.132 729.345 859.132 637.845 859.132 C 546.345 859.132 454.945 859.132 363.645 859.132 C 272.345 859.132 180.945 859.132 89.645 859.132 C -1.655 859.132 -93.055 859.132 -184.555 859.132 C -276.055 859.132 -367.655 859.132 -459.155 859.132 C -550.655 859.132 -642.055 859.132 -687.655 859.132 L -733.355 859.132 L -733.355 726.132 Z" fill="#b4dbff" transform="matrix(1, 0, 0, 1, 233.555511, -479.203156)"/>
  <path d="M -733.355 717.132 L -687.655 717.932 C -642.055 718.832 -550.655 720.432 -459.155 722.432 C -367.655 724.432 -276.055 726.832 -184.555 726.632 C -93.055 726.432 -1.655 723.832 89.645 730.132 C 180.945 736.432 272.345 751.832 363.645 751.632 C 454.945 751.432 546.345 735.832 637.845 733.132 C 729.345 730.432 820.945 740.832 912.445 742.832 C 1003.945 744.832 1095.345 738.432 1140.945 735.332 L 1186.645 732.132 L 1186.645 859.132 L 1140.945 859.132 C 1095.345 859.132 1003.945 859.132 912.445 859.132 C 820.945 859.132 729.345 859.132 637.845 859.132 C 546.345 859.132 454.945 859.132 363.645 859.132 C 272.345 859.132 180.945 859.132 89.645 859.132 C -1.655 859.132 -93.055 859.132 -184.555 859.132 C -276.055 859.132 -367.655 859.132 -459.155 859.132 C -550.655 859.132 -642.055 859.132 -687.655 859.132 L -733.355 859.132 L -733.355 717.132 Z" fill="#99cdff" transform="matrix(1, 0, 0, 1, 233.555511, -479.203156)"/>
  <path d="M -733.355 754.132 L -687.655 758.332 C -642.055 762.432 -550.655 770.832 -459.155 771.432 C -367.655 772.132 -276.055 765.132 -184.555 764.132 C -93.055 763.132 -1.655 768.132 89.645 770.132 C 180.945 772.132 272.345 771.132 363.645 773.932 C 454.945 776.832 546.345 783.432 637.845 784.432 C 729.345 785.432 820.945 780.832 912.445 775.132 C 1003.945 769.432 1095.345 762.832 1140.945 759.432 L 1186.645 756.132 L 1186.645 859.132 L 1140.945 859.132 C 1095.345 859.132 1003.945 859.132 912.445 859.132 C 820.945 859.132 729.345 859.132 637.845 859.132 C 546.345 859.132 454.945 859.132 363.645 859.132 C 272.345 859.132 180.945 859.132 89.645 859.132 C -1.655 859.132 -93.055 859.132 -184.555 859.132 C -276.055 859.132 -367.655 859.132 -459.155 859.132 C -550.655 859.132 -642.055 859.132 -687.655 859.132 L -733.355 859.132 L -733.355 754.132 Z" fill="#7ebfff" transform="matrix(1, 0, 0, 1, 233.555511, -479.203156)"/>
  <path d="M -733.355 796.132 L -687.655 796.432 C -642.055 796.832 -550.655 797.432 -459.155 795.932 C -367.655 794.432 -276.055 790.832 -184.555 790.132 C -93.055 789.432 -1.655 791.832 89.645 789.332 C 180.945 786.832 272.345 779.432 363.645 781.332 C 454.945 783.132 546.345 794.132 637.845 801.432 C 729.345 808.832 820.945 812.432 912.445 814.132 C 1003.945 815.832 1095.345 815.432 1140.945 815.332 L 1186.645 815.132 L 1186.645 859.132 L 1140.945 859.132 C 1095.345 859.132 1003.945 859.132 912.445 859.132 C 820.945 859.132 729.345 859.132 637.845 859.132 C 546.345 859.132 454.945 859.132 363.645 859.132 C 272.345 859.132 180.945 859.132 89.645 859.132 C -1.655 859.132 -93.055 859.132 -184.555 859.132 C -276.055 859.132 -367.655 859.132 -459.155 859.132 C -550.655 859.132 -642.055 859.132 -687.655 859.132 L -733.355 859.132 L -733.355 796.132 Z" fill="#61b1ff" transform="matrix(1, 0, 0, 1, 233.555511, -479.203156)"/>
  <path d="M -733.355 830.132 L -687.655 830.832 C -642.055 831.432 -550.655 832.832 -459.155 831.632 C -367.655 830.432 -276.055 826.832 -184.555 822.132 C -93.055 817.432 -1.655 811.832 89.645 814.132 C 180.945 816.432 272.345 826.832 363.645 831.632 C 454.945 836.432 546.345 835.832 637.845 831.932 C 729.345 828.132 820.945 821.132 912.445 818.932 C 1003.945 816.832 1095.345 819.432 1140.945 820.832 L 1186.645 822.132 L 1186.645 859.132 L 1140.945 859.132 C 1095.345 859.132 1003.945 859.132 912.445 859.132 C 820.945 859.132 729.345 859.132 637.845 859.132 C 546.345 859.132 454.945 859.132 363.645 859.132 C 272.345 859.132 180.945 859.132 89.645 859.132 C -1.655 859.132 -93.055 859.132 -184.555 859.132 C -276.055 859.132 -367.655 859.132 -459.155 859.132 C -550.655 859.132 -642.055 859.132 -687.655 859.132 L -733.355 859.132 L -733.355 830.132 Z" style="fill: rgb(62, 162, 255);" transform="matrix(1, 0, 0, 1, 233.555511, -479.203156)"/>
</svg>