<?xml version="1.0" encoding="utf-8"?>
<svg viewBox="-993.356 768.548 1920 84" width="1920" height="84" xmlns="http://www.w3.org/2000/svg">
  <path d="M0 1014L45.7 1010.8C91.3 1007.7 182.7 1001.3 274.2 1000.3C365.7 999.3 457.3 1003.7 548.8 1006.7C640.3 1009.7 731.7 1011.3 823 1013.7C914.3 1016 1005.7 1019 1097 1017C1188.3 1015 1279.7 1008 1371.2 1008C1462.7 1008 1554.3 1015 1645.8 1014.3C1737.3 1013.7 1828.7 1005.3 1874.3 1001.2L1920 997L1920 1081L1874.3 1081C1828.7 1081 1737.3 1081 1645.8 1081C1554.3 1081 1462.7 1081 1371.2 1081C1279.7 1081 1188.3 1081 1097 1081C1005.7 1081 914.3 1081 823 1081C731.7 1081 640.3 1081 548.8 1081C457.3 1081 365.7 1081 274.2 1081C182.7 1081 91.3 1081 45.7 1081L0 1081Z" fill="#b4dbff" transform="matrix(1, 0, 0, 1, -993.356018, -228.451645)"/>
  <path d="M0 1009L45.7 1009.5C91.3 1010 182.7 1011 274.2 1012C365.7 1013 457.3 1014 548.8 1013.8C640.3 1013.7 731.7 1012.3 823 1015.5C914.3 1018.7 1005.7 1026.3 1097 1026.2C1188.3 1026 1279.7 1018 1371.2 1016.7C1462.7 1015.3 1554.3 1020.7 1645.8 1021.8C1737.3 1023 1828.7 1020 1874.3 1018.5L1920 1017L1920 1081L1874.3 1081C1828.7 1081 1737.3 1081 1645.8 1081C1554.3 1081 1462.7 1081 1371.2 1081C1279.7 1081 1188.3 1081 1097 1081C1005.7 1081 914.3 1081 823 1081C731.7 1081 640.3 1081 548.8 1081C457.3 1081 365.7 1081 274.2 1081C182.7 1081 91.3 1081 45.7 1081L0 1081Z" fill="#99cdff" transform="matrix(1, 0, 0, 1, -993.356018, -228.451645)"/>
  <path d="M0 1027L45.7 1029.2C91.3 1031.3 182.7 1035.7 274.2 1036.2C365.7 1036.7 457.3 1033.3 548.8 1032.8C640.3 1032.3 731.7 1034.7 823 1035.7C914.3 1036.7 1005.7 1036.3 1097 1037.7C1188.3 1039 1279.7 1042 1371.2 1042.3C1462.7 1042.7 1554.3 1040.3 1645.8 1037.5C1737.3 1034.7 1828.7 1031.3 1874.3 1029.7L1920 1028L1920 1081L1874.3 1081C1828.7 1081 1737.3 1081 1645.8 1081C1554.3 1081 1462.7 1081 1371.2 1081C1279.7 1081 1188.3 1081 1097 1081C1005.7 1081 914.3 1081 823 1081C731.7 1081 640.3 1081 548.8 1081C457.3 1081 365.7 1081 274.2 1081C182.7 1081 91.3 1081 45.7 1081L0 1081Z" fill="#7ebfff" transform="matrix(1, 0, 0, 1, -993.356018, -228.451645)"/>
  <path d="M0 1048L45.7 1048.3C91.3 1048.7 182.7 1049.3 274.2 1048.7C365.7 1048 457.3 1046 548.8 1045.5C640.3 1045 731.7 1046 823 1044.7C914.3 1043.3 1005.7 1039.7 1097 1040.7C1188.3 1041.7 1279.7 1047.3 1371.2 1051C1462.7 1054.7 1554.3 1056.3 1645.8 1057.2C1737.3 1058 1828.7 1058 1874.3 1058L1920 1058L1920 1081L1874.3 1081C1828.7 1081 1737.3 1081 1645.8 1081C1554.3 1081 1462.7 1081 1371.2 1081C1279.7 1081 1188.3 1081 1097 1081C1005.7 1081 914.3 1081 823 1081C731.7 1081 640.3 1081 548.8 1081C457.3 1081 365.7 1081 274.2 1081C182.7 1081 91.3 1081 45.7 1081L0 1081Z" fill="#61b1ff" transform="matrix(1, 0, 0, 1, -993.356018, -228.451645)"/>
  <path d="M0 1066L45.7 1066.2C91.3 1066.3 182.7 1066.7 274.2 1066C365.7 1065.3 457.3 1063.7 548.8 1061.3C640.3 1059 731.7 1056 823 1057.2C914.3 1058.3 1005.7 1063.7 1097 1066.2C1188.3 1068.7 1279.7 1068.3 1371.2 1066.3C1462.7 1064.3 1554.3 1060.7 1645.8 1059.7C1737.3 1058.7 1828.7 1060.3 1874.3 1061.2L1920 1062L1920 1081L1874.3 1081C1828.7 1081 1737.3 1081 1645.8 1081C1554.3 1081 1462.7 1081 1371.2 1081C1279.7 1081 1188.3 1081 1097 1081C1005.7 1081 914.3 1081 823 1081C731.7 1081 640.3 1081 548.8 1081C457.3 1081 365.7 1081 274.2 1081C182.7 1081 91.3 1081 45.7 1081L0 1081Z" fill="#3ea2ff" transform="matrix(1, 0, 0, 1, -993.356018, -228.451645)"/>
</svg>